<?xml version="1.0" encoding="UTF-8"?>
<svg id="Layer_2" data-name="Layer 2" xmlns="http://www.w3.org/2000/svg" viewBox="0 0 184.77 233.24">
  <g id="Layer_1-2" data-name="Layer 1">
    <path d="M134.16,106.64H35.3c-3.73,0-6.75-3.02-6.75-6.75s3.02-6.75,6.75-6.75h98.86c3.73,0,6.75,3.02,6.75,6.75s-3.02,6.75-6.75,6.75Z"/>
    <path d="M73.82,137.94h-38.52c-3.73,0-6.75-3.02-6.75-6.75s3.02-6.75,6.75-6.75h38.52c3.73,0,6.75,3.02,6.75,6.75s-3.02,6.75-6.75,6.75Z"/>
    <path d="M73.82,75.34h-38.52c-3.73,0-6.75-3.02-6.75-6.75s3.02-6.75,6.75-6.75h38.52c3.73,0,6.75,3.02,6.75,6.75s-3.02,6.75-6.75,6.75Z"/>
    <path d="M162.71,65.3h-36.79c-12,0-21.75-9.76-21.75-21.75V6.75c0-3.73,3.02-6.75,6.75-6.75s6.75,3.02,6.75,6.75v36.79c0,4.55,3.7,8.24,8.24,8.24h36.79c3.73,0,6.75,3.02,6.75,6.75s-3.02,6.75-6.75,6.75Z"/>
    <path d="M162.71,90.99c-3.73,0-6.75-3.02-6.75-6.75v-25.69c0-3.73,3.02-6.75,6.75-6.75s6.75,3.02,6.75,6.75v25.69c0,3.73-3.02,6.75-6.75,6.75Z"/>
    <path d="M84.73,221.07H21.75c-11.99,0-21.75-9.76-21.75-21.75V21.75C0,9.76,9.76,0,21.75,0h89.16c3.73,0,6.75,3.02,6.75,6.75s-3.02,6.75-6.75,6.75H21.75c-4.55,0-8.24,3.7-8.24,8.24v177.57c0,4.55,3.7,8.24,8.24,8.24h62.98c3.73,0,6.75,3.02,6.75,6.75s-3.02,6.75-6.75,6.75Z"/>
    <path d="M162.71,65.3c-1.73,0-3.46-.66-4.78-1.98L106.14,11.53c-2.64-2.64-2.64-6.92,0-9.55,2.64-2.64,6.92-2.64,9.55,0l51.79,51.79c2.64,2.64,2.64,6.92,0,9.55-1.32,1.32-3.05,1.98-4.78,1.98Z"/>
    <path d="M122.9,127.06l5.85,15.82c5.39,14.56,16.86,26.03,31.42,31.42l15.82,5.85-15.82,5.85c-14.56,5.39-26.03,16.86-31.42,31.42l-5.85,15.82-5.85-15.82c-5.39-14.56-16.86-26.03-31.42-31.42l-15.82-5.85,15.82-5.85c14.56-5.39,26.03-16.86,31.42-31.42l5.85-15.82Z"/>
    <path d="M162.71,110.54l2.26,7.64c2.08,5.63,6.52,10.07,12.16,12.16l7.64,2.26-7.64,2.26c-5.63,2.08-10.07,6.52-12.16,12.16l-2.26,7.64-2.26-7.64c-2.08-5.63-6.52-10.07-12.16-12.16l-7.64-2.26,7.64-2.26c5.63-2.08,10.07-6.52,12.16-12.16l2.26-7.64Z"/>
  </g>
</svg>